<svg viewBox="0 0 240 240" xmlns="http://www.w3.org/2000/svg" fill-rule="evenodd" clip-rule="evenodd" stroke-linecap="round" stroke-linejoin="round" stroke-miterlimit="1.5"><path id="top" d="M120 1.44l118.56 7.641L120 19.883 1.44 9.081 120 1.44z" fill="url(#_Linear1)" stroke="#9c9c9c" stroke-width=".4"/><path id="right" d="M120 19.883L238.56 9.081l-6.587 158.87L120 214.058V19.883z" fill="url(#_Linear2)" stroke="#fff" stroke-width=".5"/><path id="window" d="M134.227 38.325l93.794-11.592-4.742 129.889-89.579 34.251.527-152.548z" fill="url(#_Linear3)" stroke="#707274" stroke-width=".5"/><path id="left" d="M120 19.883L1.44 9.081l6.587 158.87L120 214.058V19.883z" fill="url(#_Linear4)" stroke="#fff" stroke-width=".5"/><path id="domain" d="M141.237 46.543l6.155 28.879 3.249-.597 4.672-21.737c.25-1.091.379-2.048.425-2.699l.08-.011c.03.995.144 1.86.295 2.656l3.842 20.08 3.204-.59 6.109-29.476-3.011.375-4.205 22.292c-.205 1.007-.292 1.879-.342 2.63l-.155.026c-.065-1.018-.133-1.864-.239-2.533l-3.849-21.32-2.92.363-4.827 22.805c-.209.972-.337 1.933-.383 2.76l-.163.031c-.034-1.11-.152-1.968-.269-2.596l-4.126-21.778-3.542.44zm28.926-3.61l5.145 27.356 2.901-.532 4.403-20.531c.235-1.03.36-1.937.406-2.553l.072-.012c.019.942.106 1.761.235 2.519l3.204 19.05 2.867-.528 5.779-27.888-2.696.337-3.997 21.086c-.194.953-.281 1.78-.334 2.488l-.136.026c-.05-.964-.099-1.768-.19-2.403l-3.197-20.218-2.609.326-4.546 21.534c-.201.922-.322 1.829-.376 2.61l-.144.027c-.015-1.049-.11-1.864-.208-2.457l-3.428-20.627-3.151.39zm25.812-3.219l4.311 25.986 2.605-.479 4.16-19.455c.224-.976.345-1.834.395-2.419l.064-.008c.004.892.076 1.669.182 2.388l2.677 18.12 2.583-.475 5.475-26.46-2.427.303-3.807 20.003c-.182.907-.269 1.688-.322 2.365l-.125.023c-.031-.919-.069-1.684-.144-2.285l-2.662-19.226-2.34.295-4.3 20.401c-.19.872-.311 1.73-.364 2.476l-.129.019c-.004-.995-.08-1.768-.163-2.331l-2.848-19.593-2.821.352zm23.878 17.416c-.451.08-.853.402-1.172 1.01-.352.616-.527 1.305-.553 2.067-.027.758.102 1.39.413 1.887.284.452.664.681 1.115.597.447-.08.849-.455 1.194-1.022.349-.612.52-1.293.546-2.048.031-.757-.098-1.385-.405-1.883-.308-.497-.691-.685-1.138-.608zm-33.745 19.788l-.857 39.21 2.719-.781.288-12.504.068-.02 7.061 10.4 3.637-1.041-7.873-11.073 7.994-14.396-3.447.792-7.334 13.696-.068.015.573-24.856-2.761.558zm-29.107 6.404c-.55.111-1.024.494-1.464 1.152-.398.655-.603 1.382-.611 2.239-.007.858.182 1.558.573 1.987.425.478.895.662 1.441.543.588-.126 1.058-.509 1.452-1.16.433-.658.634-1.378.645-2.231.008-.85-.178-1.493-.599-1.971-.387-.49-.853-.678-1.437-.559zm17.045 8.509c-2.776.635-4.945 2.943-6.447 6.973l-.076.02.073-4.858-3.008.693-.523 39.926 2.958-.923.235-16.263.072-.019c1.244 2.664 3.053 3.647 5.407 2.97 2.549-.731 4.524-2.618 6.026-5.73 1.49-3.047 2.264-6.786 2.351-11.245.08-4-.489-7.055-1.714-9.171-1.236-2.075-3.037-2.902-5.354-2.373h0zm34.878-7.973c-2.48.57-4.516 2.304-6.089 5.217-1.616 2.936-2.45 6.507-2.571 10.751-.103 3.774.515 6.634 1.854 8.57 1.293 1.983 3.083 2.611 5.297 1.975 1.638-.47 3.038-1.462 4.266-2.935l.122-3.759c-1.237 1.765-2.518 2.813-3.849 3.185-1.616.451-2.875-.039-3.8-1.428-.929-1.451-1.338-3.701-1.251-6.645.087-3.05.667-5.626 1.771-7.716 1.099-2.136 2.453-3.369 4.046-3.744 1.308-.31 2.521.054 3.613 1.087l.137-4.118c-1.016-.616-2.18-.75-3.546-.44zm-53.66 12.945l-.254 27.547c-.061 6.457-1.487 10.07-4.342 10.943-.868.264-1.775.149-2.723-.394l-.026 4.168c.868.283 1.737.287 2.643.003 2.385-.742 4.254-2.53 5.551-5.331 1.293-2.848 1.942-6.481 1.987-10.989l.285-26.663-3.121.716zm17.993-1.091c1.596-.379 2.844.138 3.709 1.653.894 1.497 1.315 3.694 1.258 6.695-.068 3.529-.614 6.434-1.611 8.669-1.035 2.247-2.412 3.591-4.141 4.073-1.524.428-2.753.019-3.72-1.271-.933-1.313-1.426-3.074-1.392-5.309l.053-3.824c.038-2.683.592-5.006 1.692-7.081 1.061-2.001 2.434-3.199 4.152-3.605h0zm-8.483 47.071c-2.939.969-5.32 3.093-7.129 6.381-1.854 3.315-2.768 7.177-2.81 11.64-.037 3.961.77 6.855 2.408 8.669 1.589 1.868 3.735 2.247 6.352 1.237 1.934-.747 3.576-1.998 4.998-3.729l.061-3.938c-1.43 2.036-2.928 3.326-4.502 3.919-1.911.724-3.416.406-4.554-.903-1.141-1.366-1.68-3.659-1.646-6.748.035-3.208.668-5.986 1.931-8.34 1.262-2.4 2.84-3.893 4.728-4.528 1.547-.521 3-.326 4.323.589l.065-4.325c-1.221-.49-2.605-.456-4.225.076h0zm16.31-5.37c-2.704.892-4.903 2.856-6.572 5.853-1.676 3.004-2.552 6.732-2.624 11.104-.068 3.992.66 6.908 2.169 8.742 1.502 1.764 3.527 2.197 6.075 1.217 2.582-.999 4.63-2.982 6.192-5.96 1.585-2.977 2.389-6.449 2.484-10.464.099-4.077-.523-7.07-1.877-8.93-1.361-1.872-3.307-2.4-5.847-1.562zm19.885-6.549c-2.162.712-3.838 2.798-5.078 6.186l-.064.019.106-3.95-2.601.861-.637 24.914 2.578-.992.376-14.062c.06-2.335.5-4.41 1.247-6.098.778-1.741 1.722-2.752 2.837-3.127 2.4-.807 3.519 1.198 3.378 6.002l-.428 14.434 2.468-.949.421-13.776c.069-2.143.493-4.072 1.278-5.837.785-1.81 1.695-2.84 2.73-3.188 1.214-.41 2.067-.123 2.537.911.47 1.029.675 2.859.584 5.496l-.459 13.665 2.363-.908.508-14.598c.224-6.507-1.297-9.232-4.607-8.141-2.253.738-3.997 3.012-5.245 6.771-.231-1.42-.754-2.461-1.505-3.135-.785-.666-1.68-.861-2.787-.498h0zm-20.162 10.124c1.786-.601 3.098-.18 4.012 1.183.906 1.405 1.323 3.678 1.251 6.863-.072 3.131-.595 5.718-1.574 7.732-.982 2.067-2.316 3.372-4.091 4.042-1.752.666-3.121.321-4.164-1.011-1.02-1.355-1.501-3.579-1.448-6.622.057-3.207.633-5.883 1.717-8.057 1.085-2.174 2.496-3.521 4.297-4.13zm-32.012 29.48c-.588.222-1.096.682-1.494 1.42-.436.758-.637 1.535-.641 2.347-.004.807.189 1.431.614 1.86.391.387.895.513 1.479.287.584-.222 1.092-.739 1.521-1.439.432-.75.629-1.52.637-2.324.003-.803-.182-1.427-.603-1.86-.425-.428-.929-.509-1.513-.291z" fill="url(#_Linear5)" fill-rule="nonzero" stroke="#797a7c" stroke-width=".1" stroke-linecap="butt" stroke-miterlimit="2"/><path id="logo" d="M98.435 61.627c-1.108 1.322-4.325 5.307-4.325 5.307-20.175-36.243-51.807-41.618-67.53-17.301-14.396 21.914-13.361 59.921 1.845 89.813 15.47 32.189 47.465 45.012 64.775 24.303l4.137 7.272c-21.277 23.347-54.295 6.772-71.725-28.028-16.231-32.181-17.55-75.229-2.227-99.109 19.052-29.078 53.627-20.411 75.05 17.743zm-29.883 6.631c-.035-2.648-.363-5.035-1.004-7.117-.641-2.083-1.581-3.853-2.832-5.308-1.083-1.264-2.328-2.207-3.742-2.903-1.405-.666-3.129-1.165-5.167-1.498l-5.548-.908.614 29.502 4.299 1.016c2.596.614 4.964.844 6.58.568 1.644-.26 3.004-1.117 4.082-2.556.978-1.319 1.684-2.823 2.124-4.53.427-1.738.627-3.805.594-6.266zm-16.52 65.134c.132 6.329-1.04 10.664-3.479 13.031-2.405 2.326-5.629 2.643-9.662.968-.952-.395-2.304-.943-3.883-1.852-1.567-.901-1.384-.861-2.428-1.643l3.084-5.704c1.152.834 1.012.811 2.26 1.305 1.823.723 3.241.578 4.32.341 1.099-.214 1.897-.844 2.395-1.861.535-1.04.843-2.471.961-4.242.108-1.78.138-3.894.081-6.31l-1.992-86.971 12.072 1.721c2.934.414 5.459 1.15 7.583 2.241 2.147 1.075 4.064 2.616 5.745 4.595 1.983 2.324 3.547 5.13 4.711 8.432 1.153 3.309 1.759 7.178 1.805 11.565.035 3.434-.344 6.575-1.134 9.424-.788 2.852-1.874 5.157-3.264 6.934-1.748 2.186-3.804 3.641-6.143 4.361-2.299.735-5.203.648-8.652-.235l-5.322-1.364.942 45.264zm32.736 30.668l-7.393-3.03-15.245-33.054-2.23 3.016.401 23.038-5.11-2.094-1.134-57.851 5.225 1.405.477 27.408L76.27 100.06l6.971 1.876-17.229 22.152 18.756 39.972z" fill="url(#_Linear6)" fill-rule="nonzero" stroke="#616466" stroke-width=".24" stroke-linecap="butt" stroke-miterlimit="2"/><defs><linearGradient id="_Linear1" x1="0" y1="0" x2="1" y2="0" gradientUnits="userSpaceOnUse" gradientTransform="matrix(0 17.1611 -17.1611 0 120.15 2.34539)"><stop offset="0" stop-color="#a3a3a3"/><stop offset="1" stop-color="#c4c5c5"/></linearGradient><linearGradient id="_Linear2" x1="0" y1="0" x2="1" y2="0" gradientUnits="userSpaceOnUse" gradientTransform="matrix(107.231 144.116 -249.161 185.39 122.635 22.5173)"><stop offset="0" stop-color="#e5e6e5"/><stop offset="1" stop-color="#c7c7c7"/></linearGradient><linearGradient id="_Linear3" x1="0" y1="0" x2="1" y2="0" gradientUnits="userSpaceOnUse" gradientTransform="matrix(-77.0376 143.115 -249.052 -134.063 216.113 32.9243)"><stop offset="0" stop-color="#5a6c7c"/><stop offset="1" stop-color="#212a33"/></linearGradient><linearGradient id="_Linear4" x1="0" y1="0" x2="1" y2="0" gradientUnits="userSpaceOnUse" gradientTransform="matrix(-106.704 143.589 248.25 184.479 117.892 22.5173)"><stop offset="0" stop-color="#f1f1f1"/><stop offset="1" stop-color="#d3d2d3"/></linearGradient><linearGradient id="_Linear5" x1="0" y1="0" x2="1" y2="0" gradientUnits="userSpaceOnUse" gradientTransform="matrix(56.3459 100.96 -175.794 98.1104 157.256 47.265)"><stop offset="0" stop-color="#e6e6e6"/><stop offset="1" stop-color="#e1e1e0"/></linearGradient><linearGradient id="_Linear6" x1="0" y1="0" x2="1" y2="0" gradientUnits="userSpaceOnUse" gradientTransform="matrix(17.327 -133.388 241.389 31.3562 41.8878 162.763)"><stop offset="0" stop-color="#394552"/><stop offset="1" stop-color="#607283"/></linearGradient></defs></svg>