<svg xmlns="http://www.w3.org/2000/svg" xml:space="preserve" fill-rule="evenodd" stroke-linecap="round" stroke-miterlimit="20" clip-rule="evenodd" viewBox="0 0 1024 1028"><path fill="#fff" fill-opacity=".1" d="M1024.003 219c0-118.66-96.34-214.999-215.001-214.999h-594C96.34 4.001 0 100.339 0 219.001v594.002c0 118.661 96.34 215 215 215h594c118.662 0 215.002-96.339 215.002-215V219Z"/><path fill="url(#a)" d="M624.26 244.524c0-53.237-44.915-96.459-100.237-96.459H247.091c-55.322 0-100.237 43.222-100.237 96.459v266.498c0 53.237 44.915 96.459 100.237 96.459h276.932c55.322 0 100.237-43.222 100.237-96.459V244.524Z" transform="matrix(2.14493 0 0 2.22892 -314.991 -330.024)"/><path fill="none" stroke="#fff" stroke-opacity=".1" stroke-width="1.86" d="M126.097 200h830.638" transform="matrix(1.1124 0 0 1 -90.27 568)"/><path fill="none" stroke="#fff" stroke-opacity=".2" stroke-width="2.36" d="M126.097 200h830.638" transform="matrix(1.1124 0 0 1 -90.27 312)"/><path fill="none" stroke="#fff" stroke-opacity=".1" stroke-width="1.86" d="M126.097 200h830.638" transform="matrix(1.1124 0 0 1 -90.27 56)"/><path fill="none" stroke="#fff" stroke-opacity=".1" stroke-width="1.86" d="M126.097 200h830.638" transform="matrix(0 -1.1124 1 0 568 1114.27)"/><path fill="none" stroke="#fff" stroke-opacity=".2" stroke-width="2.36" d="M126.097 200h830.638" transform="matrix(0 -1.1124 1 0 312 1114.27)"/><path fill="none" stroke="#fff" stroke-opacity=".1" stroke-width="1.86" d="M126.097 200h830.638" transform="matrix(0 -1.1124 1 0 56 1114.27)"/><path fill="none" stroke="#fff" stroke-dasharray="12.5,16.67,0,0" stroke-opacity=".24" stroke-width="4.17" d="M112.416 927.323V96.685M97.097 912h830.638M912.416 927.323V96.685M97.097 112h830.638"/><circle cx="565.795" cy="495.049" r="395.416" fill="none" stroke="#fff" stroke-dasharray="13.73,22.88,0,0" stroke-linejoin="round" stroke-miterlimit="1.5" stroke-opacity=".24" stroke-width="4.58" transform="matrix(.91043 0 0 .91043 -3.118 61.291)"/><circle cx="565.795" cy="495.049" r="395.416" fill="none" stroke="#fff" stroke-dasharray="12.36,20.59,0,0" stroke-linejoin="round" stroke-miterlimit="1.5" stroke-opacity=".24" stroke-width="4.12" transform="translate(-60.353 11.213) scale(1.01159)"/><path fill="url(#b)" fill-rule="nonzero" stroke="#fff" stroke-linecap="butt" stroke-linejoin="round" stroke-miterlimit="2" stroke-width="2.43" d="M445.138 113.975c-4.188 4.075-16.496 16.458-16.496 16.458C348.85 38.762 206.983 32.9 123.417 114.846c-84.896 82.125-87.1 213.171-5.046 298.212 78.741 87.95 231.708 80.784 305.566-5.937l16.488 16.583c-90.067 101.492-248.596 99.983-338.55 5.867-89.088-92.358-86.992-242.25 5.287-331.471 101.68-96.558 254.696-80.096 337.976 15.875ZM324 147.946c0-7.675-1.283-14.425-3.954-20.121-2.671-5.708-6.675-10.363-12.079-13.963-4.7-3.145-10.159-5.291-16.429-6.637-6.276-1.271-14.051-1.913-23.346-1.913h-25.779v89.396h20.254c12.029 0 22.891-.996 30.266-2.962 7.434-1.925 13.584-5.417 18.467-10.413 4.408-4.546 7.604-9.429 9.637-14.725 1.976-5.35 2.963-11.508 2.963-18.662ZM242.642 362.1c0 20.367-6.217 36.004-18.638 47.004-12.429 10.983-29.037 16.525-49.946 16.525-4.996 0-12.133.046-20.504-.825-8.362-.871-7.367-.987-12.946-2.204l17.588-23.854c6.041 1.283 5.296 1.392 11.862 1.392 9.513 0 16.946-2.371 22.584-4.592 5.691-2.154 9.87-5.288 12.537-9.304 2.858-4.13 4.596-9.25 5.4-15.238.758-5.987 1.163-12.971 1.163-20.821l.237-272.216 56.788.062c13.304 0 24.571 1.1 33.912 3.379 9.354 2.205 17.6 5.817 24.738 10.755 8.37 5.754 14.87 13.029 19.633 21.87 4.704 8.842 7.083 19.546 7.083 32.05 0 9.825-1.741 19.084-5.221 27.805-3.487 8.779-8.254 16.225-14.341 22.387-7.729 7.679-16.85 13.496-27.296 17.388-10.404 3.958-23.642 5.941-39.546 5.941h-25.087V362.1Zm146.566 56.25h-31.525l-66.491-84.921-10.63 11.929v72.992h-24.333V235.662h24.333v84.392l75.025-84.391h29.096l-75.441 81.6 79.966 101.087Z" transform="translate(50.187 54.859) scale(1.71428)"/><path fill="none" stroke="#fff" stroke-linejoin="round" stroke-miterlimit="1.5" stroke-width="4.1652016000000005" d="M974.005 230c0-99.344-80.656-180-180.001-180H230.002C130.656 50 50 130.657 50 230v564.004c0 99.345 80.655 180 180 180h564.003c99.345 0 180-80.655 180-180V230Z"/><defs><linearGradient id="a" x1="0" x2="1" y1="0" y2="0" gradientTransform="matrix(0 457.539 -440.298 0 399.75 148.065)" gradientUnits="userSpaceOnUse"><stop offset="0" stop-color="#596c7e"/><stop offset="1" stop-color="#3c4955"/></linearGradient><linearGradient id="b" x1="0" x2="1" y1="0" y2="0" gradientTransform="rotate(90 116.575 149.957) scale(463.337)" gradientUnits="userSpaceOnUse"><stop offset="0" stop-color="#fff" stop-opacity=".8"/><stop offset="1" stop-color="#b3b3b3" stop-opacity=".5"/></linearGradient></defs></svg>